<?xml version="1.0" encoding="UTF-8" standalone="no"?>
<!-- Uploaded to: SVG Repo, www.svgrepo.com, Generator: SVG Repo Mixer Tools -->

<svg
   width="800px"
   height="800px"
   viewBox="0 0 48 48"
   version="1.1"
   id="svg3"
   sodipodi:docname="vlc.svg"
   inkscape:version="1.4.2 (f4327f4, 2025-05-13)"
   xmlns:inkscape="http://www.inkscape.org/namespaces/inkscape"
   xmlns:sodipodi="http://sodipodi.sourceforge.net/DTD/sodipodi-0.dtd"
   xmlns="http://www.w3.org/2000/svg"
   xmlns:svg="http://www.w3.org/2000/svg">
  <sodipodi:namedview
     id="namedview3"
     pagecolor="#ffffff"
     bordercolor="#666666"
     borderopacity="1.0"
     inkscape:showpageshadow="2"
     inkscape:pageopacity="0.0"
     inkscape:pagecheckerboard="true"
     inkscape:deskcolor="#d1d1d1"
     inkscape:zoom="1.48625"
     inkscape:cx="399.66358"
     inkscape:cy="400"
     inkscape:window-width="3440"
     inkscape:window-height="1369"
     inkscape:window-x="-8"
     inkscape:window-y="-8"
     inkscape:window-maximized="1"
     inkscape:current-layer="svg3" />
  <defs
     id="defs1">
    <style
       id="style1">.a{fill:none;stroke:#000000;stroke-linecap:round;stroke-linejoin:round;}</style>
  </defs>
  <path
     class="a"
     d="M23.9128,18.7991a10.64,10.64,0,0,0,5.7686-1.9684l2.82,8.44a14.9321,14.9321,0,0,1-8.6469,2.989,14.9321,14.9321,0,0,1-8.6469-2.989l2.8205-8.44a10.64,10.64,0,0,0,5.7686,1.9684Z"
     id="path1"
     style="fill:#f7901e;fill-opacity:1;stroke:none" />
  <path
     class="a"
     d="M23.855,4.5c-1.413,0-2.0845,1.3765-2.3975,2.3322l-.9827,2.8661a5.7674,5.7674,0,0,0,3.38.9607,5.7674,5.7674,0,0,0,3.38-.9607l-.9827-2.8661C25.94,5.8765,25.268,4.5,23.855,4.5Z"
     id="path2"
     style="fill:#f7901e;fill-opacity:1;stroke:none" />
  <path
     class="a"
     d="M23.855,36.5631A16.552,16.552,0,0,1,12.6468,32.53l1.1226-3.2723H10.9511c-1.0926,0-1.5383.3628-1.814,1.221L5.8979,41.4269C5.5735,42.6905,5.7059,43.5,7.159,43.5H40.551c1.4531,0,1.5855-.8095,1.2611-2.0731l-3.2392-10.948c-.2757-.8582-.7214-1.221-1.8139-1.221H33.9406L35.0632,32.53A16.5518,16.5518,0,0,1,23.855,36.5631Z"
     id="path3"
     style="fill:#f7901e;fill-opacity:1;stroke:none" />
</svg>
